<mxfile host="app.diagrams.net" agent="Mozilla/5.0 (Macintosh; Intel Mac OS X 10_15_7) AppleWebKit/537.36 (KHTML, like Gecko) Chrome/130.0.0.0 Safari/537.36 Edg/130.0.0.0" border="50" scale="3" compressed="false" locked="false" version="24.8.6">
  <diagram name="Blank" id="YmL12bMKpDGza6XwsDPr">
    <mxGraphModel dx="1442" dy="794" grid="0" gridSize="10" guides="1" tooltips="1" connect="1" arrows="1" fold="1" page="0" pageScale="1" pageWidth="827" pageHeight="1169" background="none" math="1" shadow="0">
      <root>
        <mxCell id="X5NqExCQtvZxIxQ7pmgY-0" />
        <mxCell id="1" parent="X5NqExCQtvZxIxQ7pmgY-0" />
        <mxCell id="QHFxbuEY8rrNGAmHYfGi-3" value="" style="edgeStyle=orthogonalEdgeStyle;rounded=0;orthogonalLoop=1;jettySize=auto;html=1;entryX=0;entryY=0.5;entryDx=0;entryDy=0;" edge="1" parent="1" source="QHFxbuEY8rrNGAmHYfGi-1" target="QHFxbuEY8rrNGAmHYfGi-5">
          <mxGeometry relative="1" as="geometry">
            <mxPoint x="226" y="257" as="targetPoint" />
          </mxGeometry>
        </mxCell>
        <mxCell id="QHFxbuEY8rrNGAmHYfGi-7" value="封装" style="edgeLabel;html=1;align=center;verticalAlign=middle;resizable=0;points=[];" vertex="1" connectable="0" parent="QHFxbuEY8rrNGAmHYfGi-3">
          <mxGeometry x="-0.1507" y="1" relative="1" as="geometry">
            <mxPoint as="offset" />
          </mxGeometry>
        </mxCell>
        <mxCell id="QHFxbuEY8rrNGAmHYfGi-1" value="app 15s 采集" style="ellipse;whiteSpace=wrap;html=1;" vertex="1" parent="1">
          <mxGeometry x="-7" y="220" width="120" height="80" as="geometry" />
        </mxCell>
        <mxCell id="QHFxbuEY8rrNGAmHYfGi-10" style="edgeStyle=orthogonalEdgeStyle;rounded=0;orthogonalLoop=1;jettySize=auto;html=1;exitX=1;exitY=0.5;exitDx=0;exitDy=0;entryX=0;entryY=0.5;entryDx=0;entryDy=0;" edge="1" parent="1" source="QHFxbuEY8rrNGAmHYfGi-5" target="QHFxbuEY8rrNGAmHYfGi-8">
          <mxGeometry relative="1" as="geometry">
            <Array as="points">
              <mxPoint x="509" y="260" />
            </Array>
          </mxGeometry>
        </mxCell>
        <mxCell id="QHFxbuEY8rrNGAmHYfGi-11" value="http上报" style="edgeLabel;html=1;align=center;verticalAlign=middle;resizable=0;points=[];" vertex="1" connectable="0" parent="QHFxbuEY8rrNGAmHYfGi-10">
          <mxGeometry x="0.0741" y="-1" relative="1" as="geometry">
            <mxPoint as="offset" />
          </mxGeometry>
        </mxCell>
        <mxCell id="QHFxbuEY8rrNGAmHYfGi-5" value="经纬度、准确度、采集时间、&lt;div&gt;点位属性（0普通/2停留/3离开）&lt;/div&gt;" style="rounded=0;whiteSpace=wrap;html=1;" vertex="1" parent="1">
          <mxGeometry x="190" y="211" width="200" height="98" as="geometry" />
        </mxCell>
        <mxCell id="QHFxbuEY8rrNGAmHYfGi-6" value="上报数据" style="text;html=1;align=center;verticalAlign=middle;whiteSpace=wrap;rounded=0;" vertex="1" parent="1">
          <mxGeometry x="260" y="188" width="60" height="30" as="geometry" />
        </mxCell>
        <mxCell id="QHFxbuEY8rrNGAmHYfGi-8" value="1.请求加锁和数据去重&lt;div&gt;2.数据入meta表&lt;/div&gt;&lt;div&gt;3.用户上报异常状态监测15分钟 -1点&lt;/div&gt;&lt;div&gt;3.数据点位属性触发聚合事件&lt;/div&gt;&lt;div&gt;&lt;span style=&quot;white-space: pre;&quot;&gt;&#x9;&lt;/span&gt;3.1次日凌晨聚合前日未聚合数据：&lt;br&gt;&lt;/div&gt;&lt;div&gt;&lt;span style=&quot;white-space: pre;&quot;&gt;&#x9;&lt;/span&gt;&lt;span style=&quot;white-space: pre;&quot;&gt;&#x9;&lt;/span&gt;3.1.1：前日最后一条有效点，添加到次日meta表（加快判断）&lt;br&gt;&lt;/div&gt;&lt;div&gt;&lt;span style=&quot;white-space: pre;&quot;&gt;&#x9;&lt;span style=&quot;white-space: pre;&quot;&gt;&#x9;&lt;/span&gt;3.&lt;/span&gt;1.2:&amp;nbsp; &amp;nbsp;聚合前日未聚合数据，写入轨迹表track&lt;br&gt;&lt;/div&gt;&lt;div&gt;&lt;span style=&quot;white-space: pre;&quot;&gt;&#x9;&lt;/span&gt;3.2地图逻辑判断：&lt;br&gt;&lt;/div&gt;&lt;div&gt;&lt;span style=&quot;white-space: pre;&quot;&gt;&#x9;&lt;/span&gt;&lt;span style=&quot;white-space: pre;&quot;&gt;&#x9;&lt;/span&gt;3.2.1 聚合事件&lt;/div&gt;&lt;div&gt;&lt;span style=&quot;white-space: pre;&quot;&gt;&#x9;&lt;/span&gt;&lt;span style=&quot;white-space: pre;&quot;&gt;&#x9;&lt;span style=&quot;white-space: pre;&quot;&gt;&#x9;&lt;/span&gt;&lt;/span&gt;取出触发点之前所有未处理数据，进行判别：首位为非0和为首为0(具体逻辑在代码体现)，&lt;/div&gt;&lt;div&gt;&lt;br&gt;&lt;/div&gt;" style="rounded=0;whiteSpace=wrap;html=1;align=left;horizontal=1;verticalAlign=top;" vertex="1" parent="1">
          <mxGeometry x="519" y="99" width="400" height="322" as="geometry" />
        </mxCell>
        <mxCell id="QHFxbuEY8rrNGAmHYfGi-12" value="服务端处理逻辑" style="text;html=1;align=center;verticalAlign=middle;whiteSpace=wrap;rounded=0;" vertex="1" parent="1">
          <mxGeometry x="664" y="68" width="99" height="27" as="geometry" />
        </mxCell>
        <mxCell id="QHFxbuEY8rrNGAmHYfGi-14" value="英文https://photon.komoot.io/reverse?lon=102.9480182&amp;amp;lat=3.3824859&amp;amp;lang=en&lt;div&gt;其他语言https://nominatim.openstreetmap.org/reverse?format=geocodejson&amp;amp;lat=3.3824859&amp;amp;lon=102.9480182&amp;amp;addressdetails=1&amp;amp;accept-language=ja&amp;amp;zoom=8&amp;amp;limit=1&lt;/div&gt;" style="rounded=0;whiteSpace=wrap;html=1;" vertex="1" parent="1">
          <mxGeometry x="22" y="543" width="915" height="141" as="geometry" />
        </mxCell>
      </root>
    </mxGraphModel>
  </diagram>
</mxfile>
